<svg width="10" height="11" viewBox="0 0 10 11" fill="none" xmlns="http://www.w3.org/2000/svg">
<path d="M6.98401 2.46293V2.06097C6.98401 1.49817 6.98401 1.21677 6.87448 1.00181C6.77814 0.812727 6.62441 0.658996 6.43532 0.562653C6.22036 0.453125 5.93897 0.453125 5.37617 0.453125H4.57225C4.00945 0.453125 3.72805 0.453125 3.51309 0.562653C3.324 0.658996 3.17027 0.812727 3.07393 1.00181C2.9644 1.21677 2.9644 1.49817 2.9644 2.06097V2.46293M3.96931 5.22641V7.73866M5.97911 5.22641V7.73866M0.452148 2.46293H9.49627M8.49136 2.46293V8.09038C8.49136 8.93458 8.49136 9.35668 8.32707 9.67912C8.18256 9.96274 7.95196 10.1933 7.66833 10.3379C7.34589 10.5021 6.9238 10.5021 6.0796 10.5021H3.86882C3.02462 10.5021 2.60252 10.5021 2.28008 10.3379C1.99645 10.1933 1.76586 9.96274 1.62134 9.67912C1.45705 9.35668 1.45705 8.93458 1.45705 8.09038V2.46293" stroke="#4C515B" style="stroke:#4C515B;stroke:color(display-p3 0.2980 0.3176 0.3569);stroke-opacity:1;" stroke-width="0.904412" stroke-linecap="round" stroke-linejoin="round"/>
</svg>
