<svg width="11" height="11" viewBox="0 0 11 11" fill="none" xmlns="http://www.w3.org/2000/svg">
<path d="M8.24015 4.38653L6.23035 2.37672M0.452148 10.1647L2.15263 9.97577C2.36039 9.95269 2.46427 9.94114 2.56136 9.90971C2.6475 9.88183 2.72948 9.84242 2.80507 9.79258C2.89027 9.7364 2.96417 9.66249 3.11199 9.51468L9.7475 2.87917C10.3025 2.32418 10.3025 1.42436 9.7475 0.869369C9.19251 0.314377 8.29269 0.314377 7.7377 0.869368L1.10218 7.50487C0.954371 7.65269 0.880465 7.72659 0.824282 7.81179C0.774437 7.88738 0.735036 7.96936 0.707149 8.0555C0.675717 8.1526 0.664175 8.25648 0.64109 8.46424L0.452148 10.1647Z" stroke="#4C515B" style="stroke:#4C515B;stroke:color(display-p3 0.2980 0.3176 0.3569);stroke-opacity:1;" stroke-width="0.904412" stroke-linecap="round" stroke-linejoin="round"/>
</svg>
