<svg width="64" height="64" viewBox="0 0 64 64" fill="none" xmlns="http://www.w3.org/2000/svg">
<rect width="64" height="64" rx="14" fill="#FEF5E7" style="fill:#FEF5E7;fill:color(display-p3 0.9961 0.9608 0.9059);fill-opacity:1;"/>
<path d="M32.0013 45.3337C39.3651 45.3337 45.3346 39.3641 45.3346 32.0003C45.3346 24.6365 39.3651 18.667 32.0013 18.667C24.6375 18.667 18.668 24.6365 18.668 32.0003C18.668 39.3641 24.6375 45.3337 32.0013 45.3337Z" stroke="#F59E0B" style="stroke:#F59E0B;stroke:color(display-p3 0.9608 0.6196 0.0431);stroke-opacity:1;" stroke-width="2" stroke-linecap="round" stroke-linejoin="round"/>
<path d="M28.668 27.9541C28.668 27.3177 28.668 26.9995 28.801 26.8219C28.9169 26.6671 29.0943 26.5702 29.2871 26.5565C29.5085 26.5407 29.7761 26.7127 30.3114 27.0568L36.6056 31.1031C37.0701 31.4017 37.3023 31.551 37.3826 31.7408C37.4527 31.9067 37.4527 32.0939 37.3826 32.2598C37.3023 32.4497 37.0701 32.599 36.6056 32.8976L30.3114 36.9438C29.7761 37.2879 29.5085 37.46 29.2871 37.4442C29.0943 37.4304 28.9169 37.3336 28.801 37.1788C28.668 37.0011 28.668 36.6829 28.668 36.0465V27.9541Z" stroke="#F59E0B" style="stroke:#F59E0B;stroke:color(display-p3 0.9608 0.6196 0.0431);stroke-opacity:1;" stroke-width="2" stroke-linecap="round" stroke-linejoin="round"/>
</svg>
