<svg width="64" height="64" viewBox="0 0 64 64" fill="none" xmlns="http://www.w3.org/2000/svg">
<rect width="64" height="64" rx="14" fill="#ECFDF3" style="fill:#ECFDF3;fill:color(display-p3 0.9255 0.9922 0.9529);fill-opacity:1;"/>
<path d="M24.0013 36.0003L26.668 38.667L32.668 32.667M26.668 26.667V22.9337C26.668 21.4402 26.668 20.6934 26.9586 20.123C27.2143 19.6213 27.6222 19.2133 28.124 18.9576C28.6944 18.667 29.4412 18.667 30.9346 18.667H41.068C42.5614 18.667 43.3082 18.667 43.8786 18.9576C44.3804 19.2133 44.7883 19.6213 45.044 20.123C45.3346 20.6934 45.3346 21.4402 45.3346 22.9337V33.067C45.3346 34.5605 45.3346 35.3072 45.044 35.8776C44.7883 36.3794 44.3804 36.7873 43.8786 37.043C43.3082 37.3337 42.5614 37.3337 41.068 37.3337H37.3346M22.9346 45.3337H33.068C34.5614 45.3337 35.3082 45.3337 35.8786 45.043C36.3804 44.7873 36.7883 44.3794 37.044 43.8776C37.3346 43.3072 37.3346 42.5605 37.3346 41.067V30.9337C37.3346 29.4402 37.3346 28.6934 37.044 28.123C36.7883 27.6213 36.3804 27.2133 35.8786 26.9576C35.3082 26.667 34.5614 26.667 33.068 26.667H22.9346C21.4412 26.667 20.6944 26.667 20.124 26.9576C19.6222 27.2133 19.2143 27.6213 18.9586 28.123C18.668 28.6934 18.668 29.4402 18.668 30.9337V41.067C18.668 42.5605 18.668 43.3072 18.9586 43.8776C19.2143 44.3794 19.6222 44.7873 20.124 45.043C20.6944 45.3337 21.4412 45.3337 22.9346 45.3337Z" stroke="#12B76A" style="stroke:#12B76A;stroke:color(display-p3 0.0709 0.7173 0.4157);stroke-opacity:1;" stroke-width="2.5" stroke-linecap="round" stroke-linejoin="round"/>
</svg>
